<svg xmlns="http://www.w3.org/2000/svg" xmlns:xlink="http://www.w3.org/1999/xlink" width="1920" zoomAndPan="magnify" viewBox="0 0 1440 1439.999935" height="1920" preserveAspectRatio="xMidYMid meet" version="1.0"><defs><g/><clipPath id="06bc3f8874"><rect x="0" width="1043" y="0" height="410"/></clipPath><clipPath id="e8d26b9b2a"><path d="M 329.296875 720 L 338.449219 720 L 338.449219 729.152344 L 329.296875 729.152344 Z M 329.296875 720 " clip-rule="nonzero"/></clipPath><clipPath id="5cf2e432eb"><path d="M 333.875 720 C 331.347656 720 329.296875 722.046875 329.296875 724.574219 C 329.296875 727.101562 331.347656 729.152344 333.875 729.152344 C 336.402344 729.152344 338.449219 727.101562 338.449219 724.574219 C 338.449219 722.046875 336.402344 720 333.875 720 Z M 333.875 720 " clip-rule="nonzero"/></clipPath><clipPath id="038bcbe9f3"><path d="M 0.296875 0 L 9.449219 0 L 9.449219 9.152344 L 0.296875 9.152344 Z M 0.296875 0 " clip-rule="nonzero"/></clipPath><clipPath id="953775ab55"><path d="M 4.875 0 C 2.347656 0 0.296875 2.046875 0.296875 4.574219 C 0.296875 7.101562 2.347656 9.152344 4.875 9.152344 C 7.402344 9.152344 9.449219 7.101562 9.449219 4.574219 C 9.449219 2.046875 7.402344 0 4.875 0 Z M 4.875 0 " clip-rule="nonzero"/></clipPath><clipPath id="19dea116e0"><rect x="0" width="10" y="0" height="10"/></clipPath></defs><g transform="matrix(1, 0, 0, 1, 198, 514)"><g clip-path="url(#06bc3f8874)"><g fill="#e50914" fill-opacity="1"><g transform="translate(48.927969, 320.364082)"><g><path d="M 64.640625 -59.140625 L 57.265625 -267 L 93.078125 -273.578125 L 100.328125 -18.40625 L 42.1875 -7.734375 L -41.625 -248.859375 L -2.28125 -256.078125 Z M 64.640625 -59.140625 "/></g></g></g><g fill="#e50914" fill-opacity="1"><g transform="translate(180.269085, 296.261764)"><g><path d="M -17.53125 -252.078125 L 21.78125 -257.09375 L 49.078125 -42.59375 L 113.796875 -50.828125 L 118.34375 -15.0625 L 14.3125 -1.8125 Z M -17.53125 -252.078125 "/></g></g></g><g fill="#e50914" fill-opacity="1"><g transform="translate(290.115105, 281.627056)"><g><path d="M 142.359375 -10.15625 L 102.453125 -7.3125 L 92.375 -52.484375 L 43.84375 -49.015625 L 40.25 -2.875 L 3.953125 -0.28125 L 26.265625 -254.796875 L 84.140625 -258.921875 Z M 46.4375 -83.53125 L 84.546875 -86.25 L 56.40625 -212.140625 Z M 46.4375 -83.53125 "/></g></g></g><g fill="#e50914" fill-opacity="1"><g transform="translate(424.606915, 271.678608)"><g><path d="M 71.5625 -253.0625 C 92.21875 -253.28125 107.21875 -248.632812 116.5625 -239.125 C 125.90625 -229.613281 130.679688 -215.128906 130.890625 -195.671875 L 131 -186.65625 C 131.132812 -173.675781 129.207031 -162.957031 125.21875 -154.5 C 121.226562 -146.050781 114.8125 -139.738281 105.96875 -135.5625 C 116.820312 -131.582031 124.515625 -124.992188 129.046875 -115.796875 C 133.585938 -106.597656 135.929688 -95.273438 136.078125 -81.828125 L 136.296875 -61.28125 C 136.503906 -41.820312 131.617188 -26.929688 121.640625 -16.609375 C 111.671875 -6.296875 96.710938 -1.03125 76.765625 -0.8125 L 14.421875 -0.15625 L 11.734375 -252.421875 Z M 52.859375 -114.109375 L 53.671875 -36.625 L 76.375 -36.859375 C 83.101562 -36.929688 88.191406 -38.785156 91.640625 -42.421875 C 95.085938 -46.066406 96.757812 -52.570312 96.65625 -61.9375 L 96.421875 -83.921875 C 96.296875 -95.691406 94.226562 -103.71875 90.21875 -108 C 86.21875 -112.289062 79.648438 -114.390625 70.515625 -114.296875 Z M 51.75 -216.8125 L 52.46875 -150.125 L 67.96875 -150.28125 C 75.414062 -150.363281 81.21875 -152.347656 85.375 -156.234375 C 89.539062 -160.128906 91.570312 -167.125 91.46875 -177.21875 L 91.3125 -191.28125 C 91.21875 -200.40625 89.523438 -206.992188 86.234375 -211.046875 C 82.941406 -215.097656 77.8125 -217.085938 70.84375 -217.015625 Z M 51.75 -216.8125 "/></g></g></g><g fill="#e50914" fill-opacity="1"><g transform="translate(559.513992, 270.231325)"><g><path d="M 60.296875 -137.640625 L 111.421875 -135.328125 L 109.8125 -99.3125 L 58.6875 -101.625 L 54 2.421875 L 14.40625 0.640625 L 25.75 -251.375 L 130.515625 -246.65625 L 128.890625 -210.671875 L 63.71875 -213.609375 Z M 60.296875 -137.640625 "/></g></g></g><g fill="#e50914" fill-opacity="1"><g transform="translate(672.444504, 275.059323)"><g><path d="M 38.390625 -249.765625 L 77.84375 -246 L 57.25 -30.75 L 122.1875 -24.53125 L 118.75 11.359375 L 14.359375 1.375 Z M 38.390625 -249.765625 "/></g></g></g><g fill="#e50914" fill-opacity="1"><g transform="translate(784.174998, 286.074495)"><g><path d="M 47.953125 -248.109375 L 87.234375 -242.8125 L 53.578125 7.21875 L 14.296875 1.921875 Z M 47.953125 -248.109375 "/></g></g></g><g fill="#e50914" fill-opacity="1"><g transform="translate(841.806311, 292.59928)"><g><path d="M 189.328125 -222.078125 L 126.6875 -108.90625 L 147.15625 26.671875 L 106.03125 19.21875 L 91.921875 -84.796875 L 41.84375 7.578125 L 5.3125 0.96875 L 72.078125 -118.796875 L 53.15625 -246.75 L 93.578125 -239.421875 L 106.4375 -142.609375 L 153.15625 -228.625 Z M 189.328125 -222.078125 "/></g></g></g></g></g><g clip-path="url(#e8d26b9b2a)"><g clip-path="url(#5cf2e432eb)"><g transform="matrix(1, 0, 0, 1, 329, 720)"><g clip-path="url(#19dea116e0)"><g clip-path="url(#038bcbe9f3)"><g clip-path="url(#953775ab55)"><path fill="#e50914" d="M 0.296875 0 L 9.449219 0 L 9.449219 9.152344 L 0.296875 9.152344 Z M 0.296875 0 " fill-opacity="1" fill-rule="nonzero"/></g></g></g></g></g></g></svg>